<svg xmlns="http://www.w3.org/2000/svg" xmlns:xlink="http://www.w3.org/1999/xlink" width="189" height="22" viewBox="0 0 189 22">
  <defs>
    <linearGradient id="linear-gradient" x1="0.5" x2="0.5" y2="1" gradientUnits="objectBoundingBox">
      <stop offset="0" stop-color="#fff"/>
      <stop offset="1" stop-color="gray"/>
    </linearGradient>
  </defs>
  <g id="ATTRACTION" transform="translate(-2.98 -5.938)">
    <path id="パス_4289" data-name="パス 4289" d="M13.389,5.95A2.3,2.3,0,0,1,15.616,7.6L23.8,27.934H19.541L12.776,10.6H14L7.237,27.934H2.98L11.162,7.6A2.329,2.329,0,0,1,13.389,5.95Z" transform="translate(0 -0.006)" fill="url(#linear-gradient)"/>
    <path id="パス_4290" data-name="パス 4290" d="M43.98,5.95H62.272V9.658H43.98Zm7.265,1.376H55V27.934H51.245Z" transform="translate(-21.819 -0.006)" fill="url(#linear-gradient)"/>
    <path id="パス_4291" data-name="パス 4291" d="M89.03,5.95h18.292V9.658H89.03V5.95ZM96.3,7.326h3.761V27.934H96.3Z" transform="translate(-45.985 -0.006)" fill="url(#linear-gradient)"/>
    <path id="パス_4292" data-name="パス 4292" d="M133.722,6.486a1.82,1.82,0,0,1,1.324-.536h8.907a6.257,6.257,0,0,1,3.3.933,7.13,7.13,0,0,1,2.475,2.489,6.219,6.219,0,0,1,.931,3.255,6.647,6.647,0,0,1-.837,3.242,6.832,6.832,0,0,1-2.283,2.489,5.629,5.629,0,0,1-3.148.947h-2.7l.669-1.321,8.1,9.946h-4.622l-7.518-9.124a2.226,2.226,0,0,1-.529-1.418,1.712,1.712,0,0,1,.515-1.265,1.878,1.878,0,0,1,1.38-.508h4.369a2.583,2.583,0,0,0,1.432-.425,3.034,3.034,0,0,0,1.029-1.113,2.906,2.906,0,0,0,.374-1.427,2.82,2.82,0,0,0-.416-1.455,3.353,3.353,0,0,0-1.113-1.113,2.793,2.793,0,0,0-1.474-.425H136.9V27.934H133.17V7.792a1.78,1.78,0,0,1,.543-1.307Z" transform="translate(-69.572 -0.006)" fill="url(#linear-gradient)"/>
    <path id="パス_4293" data-name="パス 4293" d="M186.684,5.95A2.3,2.3,0,0,1,188.91,7.6L197.1,27.934h-4.262L186.071,10.6H187.3l-6.765,17.339H176.27L184.457,7.6a2.329,2.329,0,0,1,2.227-1.648Z" transform="translate(-92.612 -0.006)" fill="url(#linear-gradient)"/>
    <path id="パス_4294" data-name="パス 4294" d="M238.533,9.668h-8.547a2.724,2.724,0,0,0-1.352.356,2.681,2.681,0,0,0-.987.96,2.545,2.545,0,0,0-.36,1.348v9.235a2.612,2.612,0,0,0,.36,1.348,2.727,2.727,0,0,0,2.339,1.316h8.547V27.94h-8.519a6.254,6.254,0,0,1-3.242-.877,6.668,6.668,0,0,1-2.367-2.35,6.125,6.125,0,0,1-.875-3.2V12.388a6.125,6.125,0,0,1,.875-3.2,6.668,6.668,0,0,1,2.367-2.35,6.254,6.254,0,0,1,3.242-.877h8.519V9.668Z" transform="translate(-117.852 -0.012)" fill="url(#linear-gradient)"/>
    <path id="パス_4295" data-name="パス 4295" d="M263.04,5.95h18.292V9.658H263.04Zm7.265,1.376h3.757V27.934h-3.757Z" transform="translate(-138.976 -0.006)" fill="url(#linear-gradient)"/>
    <path id="パス_4296" data-name="パス 4296" d="M312.147,27.934H308.39V5.95h3.757Z" transform="translate(-163.158 -0.006)" fill="url(#linear-gradient)"/>
    <path id="パス_4297" data-name="パス 4297" d="M339.956,6.81a6.259,6.259,0,0,1,3.186,5.495v9.263a6.26,6.26,0,0,1-3.186,5.523,6.463,6.463,0,0,1-3.27.85h-4.87a6.463,6.463,0,0,1-3.27-.85,6.26,6.26,0,0,1-3.186-5.523V12.332a6.257,6.257,0,0,1,.847-3.214A6.333,6.333,0,0,1,331.76,5.96h4.926a6.509,6.509,0,0,1,3.27.85Zm-9.492,3.214a2.871,2.871,0,0,0-.973.96,2.473,2.473,0,0,0-.374,1.348v9.235a2.536,2.536,0,0,0,.374,1.348,2.871,2.871,0,0,0,.973.96,2.557,2.557,0,0,0,1.352.356h4.87a2.624,2.624,0,0,0,1.352-.356,2.872,2.872,0,0,0,.973-.96,2.473,2.473,0,0,0,.374-1.348V12.3a2.536,2.536,0,0,0-.374-1.348,2.75,2.75,0,0,0-.973-.947,2.648,2.648,0,0,0-1.352-.342h-4.87a2.612,2.612,0,0,0-1.352.356Z" transform="translate(-172.377 -0.012)" fill="url(#linear-gradient)"/>
    <path id="パス_4298" data-name="パス 4298" d="M388.711,27.517a1.775,1.775,0,0,1-1.46.4,1.948,1.948,0,0,1-1.338-.813l-10.8-15.141,1-.328v16.3H372.3V7.869a1.853,1.853,0,0,1,.627-1.51,1.775,1.775,0,0,1,1.46-.4,1.921,1.921,0,0,1,1.338.84l10.83,15.113-1.029.328V5.944h3.813V26.03a1.821,1.821,0,0,1-.627,1.482Z" transform="translate(-197.358 0)" fill="url(#linear-gradient)"/>
  </g>
</svg>
