<svg xmlns="http://www.w3.org/2000/svg" width="92" height="23" viewBox="0 0 92 23">
  <g id="MENU" transform="translate(-4.64 -5.862)">
    <path id="パス_4339" data-name="パス 4339" d="M5.336,6.194a2.106,2.106,0,0,1,1.53-.275,1.647,1.647,0,0,1,1.206.819L16.523,22H14.765l8.456-15.26A1.637,1.637,0,0,1,24.47,5.89,2.05,2.05,0,0,1,26,6.232a1.533,1.533,0,0,1,.682,1.335V28.852H22.825V13.505l.877.2-6.383,11.5a2.144,2.144,0,0,1-1.02.916,1.675,1.675,0,0,1-1.277.014,2.153,2.153,0,0,1-1.077-.93l-6.354-11.5.877-.2V28.852H4.64V7.567a1.506,1.506,0,0,1,.7-1.378Z" fill="#fff"/>
    <path id="パス_4340" data-name="パス 4340" d="M80.267,9.83H70.138a2.648,2.648,0,0,0-1.363.371,2.918,2.918,0,0,0-1.006,1,2.629,2.629,0,0,0-.381,1.407v9.64a2.7,2.7,0,0,0,.381,1.407,2.917,2.917,0,0,0,1.006,1,2.635,2.635,0,0,0,1.363.371H80.267V28.9H70.2a6.381,6.381,0,0,1-3.346-.916,6.761,6.761,0,0,1-2.412-2.439,6.57,6.57,0,0,1-.877-3.355V12.669a6.57,6.57,0,0,1,.877-3.355,6.761,6.761,0,0,1,2.412-2.439A6.381,6.381,0,0,1,70.2,5.96H80.267ZM79.19,19.408H69.032v-3.87H79.19Z" transform="translate(-30.575 -0.051)" fill="#fff"/>
    <path id="パス_4341" data-name="パス 4341" d="M126.342,28.462a1.778,1.778,0,0,1-1.487.415,1.978,1.978,0,0,1-1.363-.848l-11.006-15.8,1.02-.342V28.891H109.62V7.954a1.957,1.957,0,0,1,.639-1.576,1.778,1.778,0,0,1,1.487-.415,1.952,1.952,0,0,1,1.363.877l11.035,15.776-1.049.342V5.944h3.885V26.91a1.922,1.922,0,0,1-.639,1.547Z" transform="translate(-54.473 -0.04)" fill="#fff"/>
    <path id="パス_4342" data-name="パス 4342" d="M175.6,25.529a6.84,6.84,0,0,1-2.426,2.453,6.33,6.33,0,0,1-3.318.916h-4.681a6.308,6.308,0,0,1-3.332-.916,6.915,6.915,0,0,1-2.412-2.439,6.489,6.489,0,0,1-.891-3.355V5.95h3.828V22.27a2.723,2.723,0,0,0,.367,1.379,2.761,2.761,0,0,0,.991,1,2.685,2.685,0,0,0,1.42.371h4.767a2.724,2.724,0,0,0,1.378-.371,2.588,2.588,0,0,0,.991-1,2.733,2.733,0,0,0,.353-1.379V5.95h3.856V22.184a6.47,6.47,0,0,1-.9,3.34Z" transform="translate(-79.852 -0.046)" fill="#fff"/>
  </g>
</svg>
