<svg id="メニュー" xmlns="http://www.w3.org/2000/svg" width="57" height="12" viewBox="0 0 57 12">
  <rect id="長方形_1673" data-name="長方形 1673" width="11.557" height="2.66" transform="translate(16.356 0.39)" fill="#fff"/>
  <path id="パス_4343" data-name="パス 4343" d="M76.489,5.01H68v2.2h6.218v5.259H67.24v2.209H77.645V12.473H76.489Z" transform="translate(-35.619 -3.021)" fill="#fff"/>
  <rect id="長方形_1674" data-name="長方形 1674" width="11.247" height="2.858" transform="translate(45.753 4.605)" fill="#fff"/>
  <rect id="長方形_1675" data-name="長方形 1675" width="12.53" height="2.646" transform="translate(15.867 9.03)" fill="#fff"/>
  <path id="パス_4344" data-name="パス 4344" d="M11.082,1.291V0H8.309V1.195a9.065,9.065,0,0,1-.437,2.869A20.974,20.974,0,0,0,.959,1.5V4.237a19.826,19.826,0,0,1,5.63,2.2A8.285,8.285,0,0,1,0,9.45V12c4.22-.018,7.271-1.669,9.089-4.173a22.572,22.572,0,0,1,3.44,2.458V6.992a21.75,21.75,0,0,0-2.176-1.56,11.564,11.564,0,0,0,.728-4.141Z" fill="#fff"/>
</svg>
