<svg xmlns="http://www.w3.org/2000/svg" width="125.438" height="14" viewBox="0 0 125.438 14">
  <g id="ホテル" transform="translate(-0.36 -0.31)">
    <rect id="長方形_1689" data-name="長方形 1689" width="1.431" height="2.319" transform="translate(42.913 0.31)" fill="#fff"/>
    <path id="パス_4385" data-name="パス 4385" d="M164.039,15.5h-2.368l-.271,6.4h2.4Z" transform="translate(-81.598 -7.697)" fill="#fff"/>
    <path id="パス_4386" data-name="パス 4386" d="M70.946,2.83H62.259V5.607h8.618c-.222,4.208-4.124,6.847-9.047,7.138V15.5c3.611-.187,6.472-1.125,8.569-2.93l4.583,2.758v-3.6l-2.57-1.48A11.205,11.205,0,0,0,73.96,4.685H70.946V2.83Z" transform="translate(-31.146 -1.277)" fill="#fff"/>
    <rect id="長方形_1690" data-name="長方形 1690" width="13.152" height="2.777" transform="translate(47.362 11.261)" fill="#fff"/>
    <rect id="長方形_1691" data-name="長方形 1691" width="11.805" height="2.999" transform="translate(64.061 6.422)" fill="#fff"/>
    <rect id="長方形_1692" data-name="長方形 1692" width="1.416" height="2.319" transform="translate(40.683 0.31)" fill="#fff"/>
    <rect id="長方形_1693" data-name="長方形 1693" width="12.13" height="2.792" transform="translate(47.875 1.81)" fill="#fff"/>
    <path id="パス_4387" data-name="パス 4387" d="M.36,13.027H6.9v.306c0,2.027-1.021,3.221-4.257,3.221H.784v2.792H2.846c5.367,0,7.493-2.674,7.493-6.013v-.306h3.152V10.25H.36Z" transform="translate(0 -5.037)" fill="#fff"/>
    <path id="パス_4388" data-name="パス 4388" d="M9.471,2.66H.36V5.452H13.492V4.6H9.471Z" transform="translate(0 -1.191)" fill="#fff"/>
    <rect id="長方形_1694" data-name="長方形 1694" width="1.416" height="2.319" transform="translate(10.359 0.31)" fill="#fff"/>
    <rect id="長方形_1695" data-name="長方形 1695" width="1.431" height="2.319" transform="translate(12.589 0.31)" fill="#fff"/>
    <path id="パス_4389" data-name="パス 4389" d="M33.3,10.59v2.4l5.125-1.278v5.6h2.417V10.98a5.228,5.228,0,0,0,3.576-4.43h-2.57c-.173,1.445-1.327,2.2-3.576,2.777L33.3,10.585Z" transform="translate(-16.69 -3.162)" fill="#fff"/>
    <path id="パス_4390" data-name="パス 4390" d="M202.376,13.333c0,2.027-1.021,3.221-4.257,3.221h-1.855v2.792h2.062c5.367,0,7.493-2.674,7.493-6.013v-.306h3.152V10.25H195.84v2.777h6.541v.306Z" transform="translate(-99.048 -5.037)" fill="#fff"/>
    <path id="パス_4391" data-name="パス 4391" d="M228.75,9.264a42.183,42.183,0,0,1-.36,6.181h2.945a47.249,47.249,0,0,0,.271-6.27V2.59h-2.861V9.269Z" transform="translate(-115.541 -1.155)" fill="#fff"/>
    <rect id="長方形_1696" data-name="長方形 1696" width="13.132" height="2.792" transform="translate(96.787 1.469)" fill="#fff"/>
    <path id="パス_4392" data-name="パス 4392" d="M183.88,15.5l.237,6.4h2.4l-.271-6.4Z" transform="translate(-92.988 -7.697)" fill="#fff"/>
    <path id="パス_4393" data-name="パス 4393" d="M240.027,12.57h-.271V2.59h-2.9V15.451h2.93c3.626,0,5.841-2.166,5.841-6.679V4.835h-2.792V8.4C242.839,11.41,241.546,12.57,240.027,12.57Z" transform="translate(-119.833 -1.155)" fill="#fff"/>
    <path id="パス_4394" data-name="パス 4394" d="M169.962,1.79h-2.708V2.831H161.99V5.643h5.264v9.284h2.708V5.643h5.175V2.831h-5.175Z" transform="translate(-81.897 -0.75)" fill="#fff"/>
  </g>
</svg>
