<svg xmlns="http://www.w3.org/2000/svg" width="103" height="13" viewBox="0 0 103 13">
  <g id="アトラクション" transform="translate(0.01)">
    <path id="パス_4307" data-name="パス 4307" d="M73.48,11.509c0,1.96-1.425,2.9-5.181,2.9H65.011v2.64h3.479c5.664,0,8.337-2.237,8.337-6.025V8.56H64.05v2.673h9.425v.277h0Z" transform="translate(-34.022 -4.418)" fill="#fff"/>
    <path id="パス_4308" data-name="パス 4308" d="M36.959,0h-2.8V12.644h2.8V6.689a21.635,21.635,0,0,0,8.159,1.454V5.4a21.505,21.505,0,0,1-8.159-1.573V0Z" transform="translate(-18.147 0)" fill="#fff"/>
    <rect id="長方形_1664" data-name="長方形 1664" width="12.778" height="2.734" transform="translate(30.033 0.342)" fill="#fff"/>
    <path id="パス_4309" data-name="パス 4309" d="M9.725,3.919C9.725,6.174,8.3,7.272,6,7.467a5.647,5.647,0,0,0,.047-.753V5.681H3.376v.786c0,1.7-.647,3.841-3.386,4.055v2.733a6.253,6.253,0,0,0,5.135-3.093c4.389,0,7.367-2.174,7.367-6.181V.48H-.005V3.147h9.73v.767h0Z" transform="translate(0 -0.255)" fill="#fff"/>
    <path id="パス_4310" data-name="パス 4310" d="M200.2,1.341A26.849,26.849,0,0,0,193.85.76V3.447a29.807,29.807,0,0,1,6.349.581Z" transform="translate(-102.957 -0.404)" fill="#fff"/>
    <rect id="長方形_1665" data-name="長方形 1665" width="5.894" height="2.415" transform="translate(62.083 3.788)" fill="#fff"/>
    <rect id="長方形_1666" data-name="長方形 1666" width="5.894" height="2.396" transform="translate(62.083 0.436)" fill="#fff"/>
    <path id="パス_4311" data-name="パス 4311" d="M98.01,7.267a5.2,5.2,0,0,0,4.455-3.649h5.458V5.712c0,3.483-2.363,4.664-6.105,4.664H99.435v2.668h2.4c6.41,0,8.759-3.062,8.759-7.052V.93H100.214a3.337,3.337,0,0,1-2.2,3.517V7.262h0Z" transform="translate(-52.058 -0.494)" fill="#fff"/>
    <path id="パス_4312" data-name="パス 4312" d="M197.051,10.685H193.44v2.683h3.868c6.9,0,8.422-4.518,8.422-8.562V1.55h-2.654V4.774c0,3.878-1.88,5.912-6.025,5.912Z" transform="translate(-102.74 -0.823)" fill="#fff"/>
    <path id="パス_4313" data-name="パス 4313" d="M135.979,11.441H132.27V14.16h3.77c7.01,0,8.548-4.421,8.548-9.061V3.04h-2.654V4.71c0,3.947-1.294,6.732-5.96,6.732h0Z" transform="translate(-70.253 -1.615)" fill="#fff"/>
    <path id="パス_4314" data-name="パス 4314" d="M175.528,5.84H165.7V8.447h7.629v.938h-7.062v2.509h7.062v.957H165.7v2.621h9.828Z" transform="translate(-88.007 -2.973)" fill="#fff"/>
  </g>
</svg>
