<svg xmlns="http://www.w3.org/2000/svg" width="238" height="23" viewBox="0 0 238 23">
  <g id="SPECIAL_GOODS" data-name="SPECIAL GOODS" transform="translate(-4.47 -5.95)">
    <path id="パス_4315" data-name="パス 4315" d="M21.7,9.833H10.958a2.556,2.556,0,0,0-1.373.386,2.8,2.8,0,0,0-.978,1.048,2.847,2.847,0,0,0-.362,1.41A3,3,0,0,0,8.607,14.1a2.806,2.806,0,0,0,.978,1.063,2.492,2.492,0,0,0,1.373.386h5.2a6.269,6.269,0,0,1,3.272.889A6.68,6.68,0,0,1,21.8,18.856a6.587,6.587,0,0,1,.884,3.362,6.513,6.513,0,0,1-.884,3.347,6.88,6.88,0,0,1-2.379,2.458,6.1,6.1,0,0,1-3.258.918H5.725V25.062H16.19a2.556,2.556,0,0,0,1.373-.386,2.926,2.926,0,0,0,.978-3.869,2.784,2.784,0,0,0-.978-1,2.631,2.631,0,0,0-1.373-.372H11.014a6.181,6.181,0,0,1-3.286-.908A6.794,6.794,0,0,1,4.47,12.673a6.583,6.583,0,0,1,.879-3.362A6.877,6.877,0,0,1,7.728,6.868a6.147,6.147,0,0,1,3.286-.918H21.7V9.828Z" transform="translate(0 0)" fill="#fff"/>
    <path id="パス_4316" data-name="パス 4316" d="M49.125,6.51a1.838,1.838,0,0,1,1.345-.56h7.945a6.169,6.169,0,0,1,3.272.918A6.8,6.8,0,0,1,64.08,9.326a6.915,6.915,0,0,1,.014,6.723,6.468,6.468,0,0,1-2.379,2.429,6.371,6.371,0,0,1-3.3.889H53.967V15.542h4.447a2.7,2.7,0,0,0,1.4-.386,2.761,2.761,0,0,0,1.006-1.048,2.9,2.9,0,0,0,.362-1.439,2.968,2.968,0,0,0-.362-1.439A2.656,2.656,0,0,0,59.816,10.2a2.757,2.757,0,0,0-1.4-.372H52.345V28.941H48.57V7.877a1.875,1.875,0,0,1,.559-1.367Z" transform="translate(-23.367 0)" fill="#fff"/>
    <path id="パス_4317" data-name="パス 4317" d="M104.973,9.838h-9.99a2.58,2.58,0,0,0-1.345.372,2.861,2.861,0,0,0-.992,1,2.667,2.667,0,0,0-.376,1.41v9.66a2.735,2.735,0,0,0,.376,1.41,2.9,2.9,0,0,0,.992,1,2.512,2.512,0,0,0,1.345.372h9.99v3.878H95.039a6.219,6.219,0,0,1-3.3-.918,6.709,6.709,0,0,1-3.249-5.806V12.683a6.709,6.709,0,0,1,3.249-5.806,6.219,6.219,0,0,1,3.3-.918h9.934Zm-1.062,9.6H93.9V15.557H103.91Z" transform="translate(-44.541 -0.005)" fill="#fff"/>
    <path id="パス_4318" data-name="パス 4318" d="M146.067,9.838h-8.589a2.654,2.654,0,0,0-1.359.372,2.749,2.749,0,0,0-1.354,2.415v9.66a2.818,2.818,0,0,0,.362,1.41,2.748,2.748,0,0,0,.992,1,2.63,2.63,0,0,0,1.359.372h8.589v3.878h-8.561a6.1,6.1,0,0,1-3.258-.918,6.841,6.841,0,0,1-2.379-2.458,6.606,6.606,0,0,1-.879-3.347V12.683a6.606,6.606,0,0,1,.879-3.347,6.841,6.841,0,0,1,2.379-2.458,6.1,6.1,0,0,1,3.258-.918h8.561V9.838Z" transform="translate(-67.071 -0.005)" fill="#fff"/>
    <path id="パス_4319" data-name="パス 4319" d="M175.765,28.945H171.99v-23h3.775Z" transform="translate(-88.804 0)" fill="#fff"/>
    <path id="パス_4320" data-name="パス 4320" d="M196.735,5.95a2.319,2.319,0,0,1,2.238,1.724L207.2,28.945h-4.283l-6.8-18.136h1.232l-6.8,18.136H186.27L194.5,7.674a2.352,2.352,0,0,1,2.238-1.724Z" transform="translate(-96.378 0)" fill="#fff"/>
    <path id="パス_4321" data-name="パス 4321" d="M242.06,26.82l-1.707-1.753h13.624v3.878H240.184a1.809,1.809,0,0,1-1.359-.575,2.016,2.016,0,0,1-.545-1.439V5.95h3.775V26.82Z" transform="translate(-123.949 0)" fill="#fff"/>
    <path id="パス_4322" data-name="パス 4322" d="M299.028,28.047a6.793,6.793,0,0,1-3.258-5.82V12.683a6.77,6.77,0,0,1,.865-3.362,6.547,6.547,0,0,1,2.379-2.458,6.243,6.243,0,0,1,3.272-.9h10.07V9.925H302.314a2.713,2.713,0,0,0-1.373.357,2.67,2.67,0,0,0-.978.99,2.745,2.745,0,0,0-.362,1.41v9.544a2.818,2.818,0,0,0,.362,1.41,2.669,2.669,0,0,0,.978.99,2.7,2.7,0,0,0,1.373.357h4.617a2.654,2.654,0,0,0,1.359-.372,2.747,2.747,0,0,0,1.354-2.386V18.489h3.86v3.738a6.563,6.563,0,0,1-.884,3.347,6.841,6.841,0,0,1-2.393,2.458,6.219,6.219,0,0,1-3.3.918H302.31a6.181,6.181,0,0,1-3.286-.908Zm6.422-13.094h6.126a1.879,1.879,0,0,1,1.373.56,1.938,1.938,0,0,1,.559,1.425v1.985H305.45V14.958Z" transform="translate(-154.426 -0.005)" fill="#fff"/>
    <path id="パス_4323" data-name="パス 4323" d="M354.728,6.849a6.426,6.426,0,0,1,2.351,2.415,6.7,6.7,0,0,1,.851,3.333v9.689a6.8,6.8,0,0,1-.851,3.362,6.426,6.426,0,0,1-2.351,2.415,6.3,6.3,0,0,1-3.286.889h-4.894a6.3,6.3,0,0,1-3.286-.889,6.426,6.426,0,0,1-2.351-2.415,6.753,6.753,0,0,1-.851-3.362v-9.66a6.753,6.753,0,0,1,.851-3.362,6.5,6.5,0,0,1,2.322-2.415,6.151,6.151,0,0,1,3.258-.889h4.95a6.343,6.343,0,0,1,3.286.889Zm-9.539,3.362a2.945,2.945,0,0,0-.978,1,2.667,2.667,0,0,0-.376,1.41v9.66a2.735,2.735,0,0,0,.376,1.41,2.946,2.946,0,0,0,.978,1,2.493,2.493,0,0,0,1.359.372h4.894A2.557,2.557,0,0,0,352.8,24.7a2.945,2.945,0,0,0,.978-1,2.667,2.667,0,0,0,.376-1.41V12.6a2.735,2.735,0,0,0-.376-1.41,2.817,2.817,0,0,0-.978-.99,2.579,2.579,0,0,0-1.359-.357h-4.894a2.546,2.546,0,0,0-1.359.372Z" transform="translate(-177.906 -0.005)" fill="#fff"/>
    <path id="パス_4324" data-name="パス 4324" d="M399.308,6.849a6.426,6.426,0,0,1,2.351,2.415,6.7,6.7,0,0,1,.851,3.333v9.689a6.8,6.8,0,0,1-.851,3.362,6.426,6.426,0,0,1-2.351,2.415,6.309,6.309,0,0,1-3.286.889h-4.894a6.3,6.3,0,0,1-3.286-.889,6.426,6.426,0,0,1-2.351-2.415,6.752,6.752,0,0,1-.851-3.362v-9.66a6.752,6.752,0,0,1,.851-3.362,6.494,6.494,0,0,1,2.322-2.415,6.151,6.151,0,0,1,3.258-.889h4.95a6.343,6.343,0,0,1,3.286.889Zm-9.544,3.362a2.945,2.945,0,0,0-.978,1,2.667,2.667,0,0,0-.376,1.41v9.66a2.735,2.735,0,0,0,.376,1.41,2.944,2.944,0,0,0,.978,1,2.546,2.546,0,0,0,1.359.372h4.894a2.558,2.558,0,0,0,1.359-.372,2.862,2.862,0,0,0,.978-1,2.667,2.667,0,0,0,.376-1.41V12.6a2.735,2.735,0,0,0-.376-1.41,2.818,2.818,0,0,0-.978-.99,2.613,2.613,0,0,0-1.359-.357h-4.894a2.558,2.558,0,0,0-1.359.372Z" transform="translate(-201.539 -0.005)" fill="#fff"/>
    <path id="パス_4325" data-name="パス 4325" d="M443.675,6.873a6.785,6.785,0,0,1,3.234,5.806v9.544a6.785,6.785,0,0,1-3.234,5.806,6.159,6.159,0,0,1-3.286.918h-5.764V25.067h5.792a2.58,2.58,0,0,0,1.345-.372,2.9,2.9,0,0,0,.992-1,2.667,2.667,0,0,0,.376-1.41V12.62a2.735,2.735,0,0,0-.376-1.41,2.9,2.9,0,0,0-.992-1,2.568,2.568,0,0,0-1.345-.372h-7.442V28.95H429.2V7.906a1.877,1.877,0,0,1,.588-1.381,1.9,1.9,0,0,1,1.373-.575h9.233a6.147,6.147,0,0,1,3.286.918Z" transform="translate(-225.172 0)" fill="#fff"/>
    <path id="パス_4326" data-name="パス 4326" d="M489.455,9.833H478.713a2.556,2.556,0,0,0-1.373.386A2.942,2.942,0,0,0,476,12.678a2.947,2.947,0,0,0,.367,1.425,2.77,2.77,0,0,0,.978,1.063,2.5,2.5,0,0,0,1.373.386h5.2a6.269,6.269,0,0,1,3.272.889,6.68,6.68,0,0,1,2.365,2.415,6.586,6.586,0,0,1,.884,3.362,6.513,6.513,0,0,1-.884,3.347,6.88,6.88,0,0,1-2.379,2.458,6.1,6.1,0,0,1-3.258.918H473.48V25.062h10.465a2.556,2.556,0,0,0,1.373-.386,2.912,2.912,0,0,0,.978-3.869,2.784,2.784,0,0,0-.978-1,2.619,2.619,0,0,0-1.373-.372h-5.176a6.181,6.181,0,0,1-3.286-.908,6.812,6.812,0,0,1-3.263-5.849,6.541,6.541,0,0,1,.884-3.362,6.877,6.877,0,0,1,2.379-2.444,6.147,6.147,0,0,1,3.286-.918h10.686V9.828Z" transform="translate(-247.968 0)" fill="#fff"/>
  </g>
</svg>
