<svg xmlns="http://www.w3.org/2000/svg" width="190" height="18" viewBox="0 0 190 18">
  <g id="HOTEL" transform="translate(-4.61 -5.938)">
    <path id="パス_4373" data-name="パス 4373" d="M16.246,6.672a5.328,5.328,0,0,1,1.9,1.923,5.128,5.128,0,0,1,.7,2.618v7.465a5.128,5.128,0,0,1-.7,2.618,5.328,5.328,0,0,1-1.9,1.923,5.041,5.041,0,0,1-2.641.718H8.974V20.9h4.655a2.116,2.116,0,0,0,1.081-.291,2.3,2.3,0,0,0,.8-.786,2.043,2.043,0,0,0,.3-1.1V11.167a2.1,2.1,0,0,0-.3-1.1,2.3,2.3,0,0,0-.8-.786,2.07,2.07,0,0,0-1.081-.291H7.648v14.95H4.61V7.48A1.449,1.449,0,0,1,5.082,6.4a1.548,1.548,0,0,1,1.1-.45h7.42a5.041,5.041,0,0,1,2.641.718Z" transform="translate(0 -0.007)" fill="#fff"/>
    <path id="パス_4374" data-name="パス 4374" d="M53.054,23.937H50.02V5.95h3.034Z" transform="translate(-28.254 -0.007)" fill="#fff"/>
    <path id="パス_4375" data-name="パス 4375" d="M78.456,8.994H69.824a2.1,2.1,0,0,0-1.1.3,2.242,2.242,0,0,0-.786.82,2.181,2.181,0,0,0-.291,1.1,2.293,2.293,0,0,0,.291,1.115,2.19,2.19,0,0,0,.786.831,2.043,2.043,0,0,0,1.1.3h4.182a5.109,5.109,0,0,1,2.629.7,5.294,5.294,0,0,1,1.9,1.889,5.056,5.056,0,0,1,.71,2.629,5,5,0,0,1-.71,2.618,5.42,5.42,0,0,1-1.912,1.923,5,5,0,0,1-2.618.718H65.619V20.91h8.41a2.1,2.1,0,0,0,1.1-.3,2.242,2.242,0,0,0,.786-.82,2.237,2.237,0,0,0,0-2.206,2.206,2.206,0,0,0-.786-.786,2.112,2.112,0,0,0-1.1-.291h-4.16a5.07,5.07,0,0,1-2.641-.71,5.3,5.3,0,0,1-1.912-1.923,5.163,5.163,0,0,1-.706-2.652,5.043,5.043,0,0,1,.706-2.629,5.45,5.45,0,0,1,1.912-1.912,5.041,5.041,0,0,1,2.641-.718h8.587V9Z" transform="translate(-37.332 -0.014)" fill="#fff"/>
    <path id="パス_4376" data-name="パス 4376" d="M123.143,23.594a1.42,1.42,0,0,1-1.179.325,1.57,1.57,0,0,1-1.081-.665l-8.723-12.388.808-.268V23.93H109.89V7.518a1.526,1.526,0,0,1,.506-1.235,1.42,1.42,0,0,1,1.179-.325,1.561,1.561,0,0,1,1.081.688L121.4,19.011l-.831.268V5.943h3.079V22.377a1.5,1.5,0,0,1-.506,1.213Z" transform="translate(-65.664 0)" fill="#fff"/>
    <path id="パス_4377" data-name="パス 4377" d="M167.292,8.994h-8.028a2.116,2.116,0,0,0-1.081.291,2.3,2.3,0,0,0-.8.786,2.053,2.053,0,0,0-.3,1.1V18.73a2.1,2.1,0,0,0,.3,1.1,2.3,2.3,0,0,0,.8.786,2.061,2.061,0,0,0,1.081.291h8.028v3.034h-7.983a5.1,5.1,0,0,1-2.652-.718,5.328,5.328,0,0,1-1.912-1.912,5.106,5.106,0,0,1-.7-2.629V11.219a5.106,5.106,0,0,1,.7-2.629,5.328,5.328,0,0,1,1.912-1.912,5.1,5.1,0,0,1,2.652-.718h7.983V9Zm-.854,7.507h-8.051V13.463h8.051Z" transform="translate(-93.206 -0.014)" fill="#fff"/>
    <path id="パス_4378" data-name="パス 4378" d="M199.181,15.8a5.452,5.452,0,0,1-1.923-1.934,5.1,5.1,0,0,1-.718-2.652V5.95h3.011v5.331a2.1,2.1,0,0,0,.3,1.1,2.3,2.3,0,0,0,.8.786,2.061,2.061,0,0,0,1.081.291h3.733a2.178,2.178,0,0,0,1.092-.291,2.018,2.018,0,0,0,.786-.8,2.222,2.222,0,0,0,.28-1.088V5.95h3.056v5.263a5.13,5.13,0,0,1-.71,2.652,5.362,5.362,0,0,1-1.923,1.934,5.06,5.06,0,0,1-2.63.718H201.8a5,5,0,0,1-2.618-.718Zm2.913-.136h3.034v8.274h-3.034V15.663Z" transform="translate(-119.709 -0.007)" fill="#fff"/>
    <path id="パス_4379" data-name="パス 4379" d="M259.56,5.95h3.034V23.937H259.56Zm12.974,10.567h-8.587V13.483h8.587ZM270.713,5.95h3.034V23.937h-3.034Z" transform="translate(-159.015 -0.007)" fill="#fff"/>
    <path id="パス_4380" data-name="パス 4380" d="M316.647,6.643a5.133,5.133,0,0,1,2.573,4.5v7.575a5.209,5.209,0,0,1-.684,2.629,5.092,5.092,0,0,1-1.889,1.889,5.167,5.167,0,0,1-2.641.7h-3.933a5.166,5.166,0,0,1-2.641-.7,5.092,5.092,0,0,1-1.889-1.889,5.171,5.171,0,0,1-.684-2.629V11.157a5.176,5.176,0,0,1,2.55-4.518,5.049,5.049,0,0,1,2.618-.7h3.978a5.17,5.17,0,0,1,2.641.7Zm-7.666,2.629a2.334,2.334,0,0,0-.786.786,2.053,2.053,0,0,0-.3,1.1v7.556a2.1,2.1,0,0,0,.3,1.1,2.334,2.334,0,0,0,.786.786,2.054,2.054,0,0,0,1.092.291h3.933a2.1,2.1,0,0,0,1.092-.291,2.334,2.334,0,0,0,.786-.786,2.044,2.044,0,0,0,.3-1.1V11.142a2.1,2.1,0,0,0-.3-1.1,2.235,2.235,0,0,0-.786-.774,2.117,2.117,0,0,0-1.092-.28h-3.933a2.1,2.1,0,0,0-1.092.291Z" transform="translate(-187.27 -0.001)" fill="#fff"/>
    <path id="パス_4381" data-name="パス 4381" d="M347.93,5.95H362.7V8.988H347.93ZM353.8,7.076h3.034V23.937H353.8Z" transform="translate(-214.134 -0.007)" fill="#fff"/>
    <path id="パス_4382" data-name="パス 4382" d="M404.142,8.994h-8.028a2.116,2.116,0,0,0-1.081.291,2.3,2.3,0,0,0-.8.786,2.053,2.053,0,0,0-.3,1.1V18.73a2.1,2.1,0,0,0,.3,1.1,2.3,2.3,0,0,0,.8.786,2.061,2.061,0,0,0,1.081.291h8.028v3.034h-7.983a5.1,5.1,0,0,1-2.652-.718,5.328,5.328,0,0,1-1.912-1.912,5.106,5.106,0,0,1-.7-2.629V11.219a5.106,5.106,0,0,1,.7-2.629,5.328,5.328,0,0,1,1.912-1.912,5.1,5.1,0,0,1,2.652-.718h7.983V9Zm-.854,7.507h-8.051V13.463h8.051Z" transform="translate(-240.93 -0.014)" fill="#fff"/>
    <path id="パス_4383" data-name="パス 4383" d="M436.418,22.275,435.046,20.9h10.949v3.034H434.91a1.473,1.473,0,0,1-1.092-.45,1.538,1.538,0,0,1-.438-1.126V5.95h3.034V22.275Z" transform="translate(-267.487 -0.007)" fill="#fff"/>
    <path id="パス_4384" data-name="パス 4384" d="M484.5,8.994h-8.633a2.1,2.1,0,0,0-1.1.3,2.241,2.241,0,0,0-.786.82,2.181,2.181,0,0,0-.291,1.1,2.293,2.293,0,0,0,.291,1.115,2.189,2.189,0,0,0,.786.831,2.044,2.044,0,0,0,1.1.3h4.182a5.109,5.109,0,0,1,2.63.7,5.294,5.294,0,0,1,1.9,1.889,5.056,5.056,0,0,1,.71,2.629,5,5,0,0,1-.71,2.618,5.42,5.42,0,0,1-1.912,1.923,5,5,0,0,1-2.618.718h-8.387V20.91h8.41a2.1,2.1,0,0,0,1.1-.3,2.242,2.242,0,0,0,.786-.82,2.237,2.237,0,0,0,0-2.206,2.206,2.206,0,0,0-.786-.786,2.112,2.112,0,0,0-1.1-.291h-4.16a5.07,5.07,0,0,1-2.641-.71,5.3,5.3,0,0,1-1.912-1.923,5.163,5.163,0,0,1-.706-2.652,5.043,5.043,0,0,1,.706-2.629,5.449,5.449,0,0,1,1.912-1.912,5.041,5.041,0,0,1,2.641-.718H484.5V9Z" transform="translate(-290.676 -0.014)" fill="#fff"/>
  </g>
</svg>
