<svg xmlns="http://www.w3.org/2000/svg" width="255" height="18" viewBox="0 0 255 18">
  <g id="DISNEY_RESORT_LINE" data-name="DISNEY RESORT LINE" transform="translate(-3.63 -4.82)">
    <path id="パス_4345" data-name="パス 4345" d="M15.421,5.56a5.305,5.305,0,0,1,1.924,1.922,5.089,5.089,0,0,1,.706,2.618v7.46a5.089,5.089,0,0,1-.706,2.618A5.342,5.342,0,0,1,15.421,22.1a5.172,5.172,0,0,1-2.677.72H8.053V19.784h4.715a2.111,2.111,0,0,0,1.092-.292,2.323,2.323,0,0,0,.809-.785,2.023,2.023,0,0,0,.306-1.1V10.053a2.063,2.063,0,0,0-.306-1.1,2.323,2.323,0,0,0-.809-.785,2.123,2.123,0,0,0-1.092-.292H6.707V22.824H3.63V6.367A1.421,1.421,0,0,1,4.11,5.29a1.593,1.593,0,0,1,1.115-.45h7.519a5.2,5.2,0,0,1,2.677.72Z" transform="translate(0 -0.011)" fill="#fff"/>
    <path id="パス_4346" data-name="パス 4346" d="M43.647,22.82H40.57V4.84h3.077Z" transform="translate(-19.559 -0.011)" fill="#fff"/>
    <path id="パス_4347" data-name="パス 4347" d="M67.42,7.876H58.673a2.134,2.134,0,0,0-1.115.3,2.285,2.285,0,0,0-.8.822,2.171,2.171,0,0,0-.3,1.1,2.247,2.247,0,0,0,.3,1.114,2.171,2.171,0,0,0,.8.831,2.092,2.092,0,0,0,1.115.3h4.239a5.237,5.237,0,0,1,2.663.7A5.327,5.327,0,0,1,67.5,14.932a5.167,5.167,0,0,1,0,5.246A5.418,5.418,0,0,1,65.562,22.1a5.149,5.149,0,0,1-2.654.72h-8.5V19.784h8.521a2.134,2.134,0,0,0,1.115-.3,2.249,2.249,0,0,0,.8-.822,2.171,2.171,0,0,0,.3-1.1,2.134,2.134,0,0,0-.3-1.1,2.214,2.214,0,0,0-1.915-1.077H58.716a5.263,5.263,0,0,1-2.677-.706A5.345,5.345,0,0,1,54.1,12.755a5.1,5.1,0,0,1-.72-2.651,5.014,5.014,0,0,1,.72-2.632A5.506,5.506,0,0,1,56.038,5.56a5.184,5.184,0,0,1,2.677-.72h8.7V7.876Z" transform="translate(-26.342 -0.011)" fill="#fff"/>
    <path id="パス_4348" data-name="パス 4348" d="M103.668,22.478a1.446,1.446,0,0,1-1.2.325,1.59,1.59,0,0,1-1.092-.664L92.541,9.754l.819-.269V22.813H90.24V6.407a1.509,1.509,0,0,1,.513-1.235,1.446,1.446,0,0,1,1.2-.325,1.557,1.557,0,0,1,1.092.687L101.9,17.9l-.842.269V4.833h3.119V21.262a1.48,1.48,0,0,1-.513,1.212Z" transform="translate(-45.9 -0.003)" fill="#fff"/>
    <path id="パス_4349" data-name="パス 4349" d="M139.579,7.865h-8.135a2.123,2.123,0,0,0-1.092.292,2.364,2.364,0,0,0-.809.785,2.022,2.022,0,0,0-.306,1.1V17.6a2.063,2.063,0,0,0,.306,1.1,2.245,2.245,0,0,0,.809.785,2.123,2.123,0,0,0,1.092.292h8.135v3.036h-8.088a5.23,5.23,0,0,1-2.687-.72,5.32,5.32,0,0,1-1.938-1.913,5.066,5.066,0,0,1-.706-2.632v-7.46a5.078,5.078,0,0,1,.706-2.632A5.356,5.356,0,0,1,128.8,5.54a5.242,5.242,0,0,1,2.687-.72h8.088V7.856Zm-.866,7.507h-8.154V12.336h8.154Z" transform="translate(-64.936)" fill="#fff"/>
    <path id="パス_4350" data-name="パス 4350" d="M162.447,14.686a5.47,5.47,0,0,1-1.948-1.931,5.068,5.068,0,0,1-.729-2.651V4.84h3.054v5.325a2.063,2.063,0,0,0,.306,1.1,2.245,2.245,0,0,0,.809.785,2.123,2.123,0,0,0,1.092.292h3.783a2.2,2.2,0,0,0,1.106-.292,2.084,2.084,0,0,0,.8-.8,2.212,2.212,0,0,0,.287-1.091V4.84h3.1V10.1a5.091,5.091,0,0,1-.72,2.651,5.4,5.4,0,0,1-1.948,1.931,5.2,5.2,0,0,1-2.663.72h-3.665a5.149,5.149,0,0,1-2.654-.72Zm2.945-.135h3.077v8.273h-3.077V14.552Z" transform="translate(-82.748 -0.011)" fill="#fff"/>
    <path id="パス_4351" data-name="パス 4351" d="M209.532,5.286a1.484,1.484,0,0,1,1.082-.436H217.9a5.129,5.129,0,0,1,2.7.766,5.906,5.906,0,0,1,2.028,2.033,5.1,5.1,0,0,1,.762,2.665,5.456,5.456,0,0,1-.682,2.651A5.579,5.579,0,0,1,220.843,15a4.62,4.62,0,0,1-2.574.775h-2.211L216.6,14.7l6.63,8.138H219.45l-6.15-7.46a1.833,1.833,0,0,1-.433-1.156,1.415,1.415,0,0,1,.419-1.035,1.538,1.538,0,0,1,1.129-.418h3.576a2.109,2.109,0,0,0,1.172-.348,2.519,2.519,0,0,0,1.148-2.08,2.321,2.321,0,0,0-.339-1.193,2.657,2.657,0,0,0-.913-.91,2.28,2.28,0,0,0-1.209-.348h-5.717V22.834H209.08V6.349a1.444,1.444,0,0,1,.442-1.068Z" transform="translate(-108.881 -0.016)" fill="#fff"/>
    <path id="パス_4352" data-name="パス 4352" d="M257.809,7.865h-8.13a2.111,2.111,0,0,0-1.092.292,2.364,2.364,0,0,0-.809.785,2.022,2.022,0,0,0-.306,1.1V17.6a2.063,2.063,0,0,0,.306,1.1,2.245,2.245,0,0,0,.809.785,2.123,2.123,0,0,0,1.092.292h8.13v3.036h-8.088a5.242,5.242,0,0,1-2.687-.72,5.319,5.319,0,0,1-1.938-1.913,5.078,5.078,0,0,1-.706-2.632v-7.46a5.078,5.078,0,0,1,.706-2.632,5.355,5.355,0,0,1,1.938-1.913,5.242,5.242,0,0,1,2.687-.72h8.088V7.856Zm-.866,7.507h-8.154V12.336h8.154Z" transform="translate(-127.593)" fill="#fff"/>
    <path id="パス_4353" data-name="パス 4353" d="M292.01,7.876h-8.747a2.134,2.134,0,0,0-1.115.3,2.235,2.235,0,0,0-.8.822,2.171,2.171,0,0,0-.3,1.1,2.247,2.247,0,0,0,.3,1.114,2.194,2.194,0,0,0,.8.831,2.092,2.092,0,0,0,1.115.3H287.5a5.255,5.255,0,0,1,2.668.7,5.327,5.327,0,0,1,1.924,1.889,5.138,5.138,0,0,1,0,5.246,5.418,5.418,0,0,1-1.939,1.922,5.149,5.149,0,0,1-2.654.72H279V19.784h8.521a2.134,2.134,0,0,0,1.115-.3,2.237,2.237,0,0,0,.8-.822,2.171,2.171,0,0,0,.3-1.1,2.135,2.135,0,0,0-.3-1.1,2.206,2.206,0,0,0-.8-.785,2.171,2.171,0,0,0-1.115-.292h-4.216a5.275,5.275,0,0,1-2.677-.706,5.344,5.344,0,0,1-1.939-1.922,5.1,5.1,0,0,1-.72-2.651,5.014,5.014,0,0,1,.72-2.632,5.506,5.506,0,0,1,1.939-1.913,5.184,5.184,0,0,1,2.677-.72h8.7V7.876Z" transform="translate(-145.39 -0.011)" fill="#fff"/>
    <path id="パス_4354" data-name="パス 4354" d="M326.781,5.536a5.133,5.133,0,0,1,2.611,4.5v7.576a5.134,5.134,0,0,1-2.611,4.522,5.3,5.3,0,0,1-2.677.7h-3.985a5.3,5.3,0,0,1-2.677-.7,5.134,5.134,0,0,1-2.611-4.522V10.058a5.183,5.183,0,0,1,5.242-5.218H324.1a5.3,5.3,0,0,1,2.677.7Zm-7.768,2.632a2.378,2.378,0,0,0-.8.785,2.023,2.023,0,0,0-.306,1.1v7.553a2.063,2.063,0,0,0,.306,1.1,2.257,2.257,0,0,0,.8.785,2.113,2.113,0,0,0,1.106.292H324.1a2.126,2.126,0,0,0,1.106-.292,2.336,2.336,0,0,0,.8-.785,2.023,2.023,0,0,0,.306-1.1V10.03a2.064,2.064,0,0,0-.306-1.1A2.18,2.18,0,0,0,324.1,7.876h-3.985A2.125,2.125,0,0,0,319.013,8.169Z" transform="translate(-164.925 -0.011)" fill="#fff"/>
    <path id="パス_4355" data-name="パス 4355" d="M352.5,5.286a1.484,1.484,0,0,1,1.082-.436h7.288a5.129,5.129,0,0,1,2.7.766A5.906,5.906,0,0,1,365.6,7.649a5.1,5.1,0,0,1,.762,2.665,5.457,5.457,0,0,1-.682,2.651A5.579,5.579,0,0,1,363.813,15a4.62,4.62,0,0,1-2.574.775h-2.211l.546-1.077,6.63,8.138H362.42l-6.15-7.46a1.833,1.833,0,0,1-.433-1.156,1.415,1.415,0,0,1,.419-1.035,1.538,1.538,0,0,1,1.129-.418h3.576a2.109,2.109,0,0,0,1.172-.348,2.519,2.519,0,0,0,1.148-2.08,2.322,2.322,0,0,0-.339-1.193,2.658,2.658,0,0,0-.913-.91,2.28,2.28,0,0,0-1.209-.348H355.1V22.834H352.05V6.349a1.444,1.444,0,0,1,.442-1.068Z" transform="translate(-184.65 -0.016)" fill="#fff"/>
    <path id="パス_4356" data-name="パス 4356" d="M386.15,4.84h14.967V7.876H386.15Zm5.943,1.123h3.077V22.82h-3.077Z" transform="translate(-202.722 -0.011)" fill="#fff"/>
    <path id="パス_4357" data-name="パス 4357" d="M438.7,21.158l-1.388-1.369h11.095v3.036H437.178a1.483,1.483,0,0,1-1.106-.45,1.525,1.525,0,0,1-.442-1.123V4.84h3.077V21.158Z" transform="translate(-228.943 -0.011)" fill="#fff"/>
    <path id="パス_4358" data-name="パス 4358" d="M471.917,22.82H468.84V4.84h3.077Z" transform="translate(-246.566 -0.011)" fill="#fff"/>
    <path id="パス_4359" data-name="パス 4359" d="M496.068,22.478a1.446,1.446,0,0,1-1.2.325,1.59,1.59,0,0,1-1.092-.664L484.941,9.754l.819-.269V22.813H482.64V6.407a1.509,1.509,0,0,1,.513-1.235,1.446,1.446,0,0,1,1.2-.325,1.557,1.557,0,0,1,1.092.687L494.3,17.9l-.842.269V4.833h3.12V21.262a1.48,1.48,0,0,1-.513,1.212Z" transform="translate(-253.873 -0.003)" fill="#fff"/>
    <path id="パス_4360" data-name="パス 4360" d="M531.009,7.865h-8.13a2.111,2.111,0,0,0-1.092.292,2.364,2.364,0,0,0-.809.785,2.023,2.023,0,0,0-.306,1.1V17.6a2.063,2.063,0,0,0,.306,1.1,2.246,2.246,0,0,0,.809.785,2.124,2.124,0,0,0,1.092.292h8.13v3.036h-8.088a5.243,5.243,0,0,1-2.687-.72,5.32,5.32,0,0,1-1.938-1.913,5.079,5.079,0,0,1-.706-2.632v-7.46a5.079,5.079,0,0,1,.706-2.632,5.356,5.356,0,0,1,1.938-1.913,5.243,5.243,0,0,1,2.687-.72h8.088V7.856Zm-.866,7.507h-8.154V12.336h8.154Z" transform="translate(-272.379)" fill="#fff"/>
  </g>
</svg>
