<svg xmlns="http://www.w3.org/2000/svg" width="119" height="13" viewBox="0 0 119 13">
  <g id="スペシャルグッズ" transform="translate(0.01)">
    <path id="パス_4327" data-name="パス 4327" d="M130.293,8.46a37.9,37.9,0,0,1-.343,5.719h2.808a42.446,42.446,0,0,0,.259-5.8V2.28h-2.728V8.46Z" transform="translate(-68.973 -1.208)" fill="#fff"/>
    <path id="パス_4328" data-name="パス 4328" d="M104.438,5.9H102.2l.1,1.105H101.16v2.21h1.3l.583,7.063h2.271l-.6-7.063h4.369v.423c0,1.364-.973,2.112-3.264,2.389l.179,2.337c3.847-.31,5.521-2.013,5.521-5.309V7.01h-6.984l-.1-1.105Z" transform="translate(-53.7 -3.486)" fill="#fff"/>
    <path id="パス_4329" data-name="パス 4329" d="M172.344,2.59H165.83a3.21,3.21,0,0,1-2.21,3.385v2.71a5.157,5.157,0,0,0,4.468-3.512h5.474V7.188c0,3.353-2.37,4.489-6.123,4.489H165.05v2.568h2.4c6.429,0,8.785-2.947,8.785-6.788V4.273h-3.9V2.59Z" transform="translate(-86.858 -1.372)" fill="#fff"/>
    <rect id="長方形_1667" data-name="長方形 1667" width="1.364" height="2.21" transform="translate(88.451)" fill="#fff"/>
    <path id="パス_4330" data-name="パス 4330" d="M39.179,2.38h-1.43a2.889,2.889,0,0,0-3.005,2.442L33.46,11.235h2.746l1.072-5.217a1.087,1.087,0,0,1,1.138-1.027h.55a1.584,1.584,0,0,1,1.622,1.1l2.939,8.165h2.826L43.077,5a3.658,3.658,0,0,0-3.9-2.615Z" transform="translate(-17.73 -1.261)" fill="#fff"/>
    <path id="パス_4331" data-name="パス 4331" d="M56.005,3.167a1.572,1.572,0,0,0,1.575-1.542A1.617,1.617,0,0,0,56.005.03,1.591,1.591,0,0,0,54.43,1.62a1.551,1.551,0,0,0,1.575,1.542Zm0-2.159a.615.615,0,0,1,.616.616.633.633,0,0,1-.616.583.606.606,0,0,1-.6-.583A.592.592,0,0,1,56.005,1.008Z" transform="translate(-28.893 -0.016)" fill="#fff"/>
    <path id="パス_4332" data-name="パス 4332" d="M11.559,3.875V2.52H.4V5.089H8.615C8.4,8.98,4.683,11.421-.01,11.69v2.55c3.442-.173,6.17-1.04,8.169-2.71l4.369,2.55V10.755l-2.45-1.369A10.192,10.192,0,0,0,11.554,3.87Z" transform="translate(0 -1.335)" fill="#fff"/>
    <path id="パス_4333" data-name="パス 4333" d="M71.75,13.023H68.03v2.695h3.781c7.031,0,8.573-4.383,8.573-8.982V4.69H77.722V6.345c0,3.913-1.3,6.673-5.977,6.673Z" transform="translate(-36.117 -2.845)" fill="#fff"/>
    <rect id="長方形_1668" data-name="長方形 1668" width="1.35" height="2.21" transform="translate(86.329)" fill="#fff"/>
    <path id="パス_4334" data-name="パス 4334" d="M141.439,11.514h-.259V2.28h-2.76v11.9h2.793c3.457,0,5.568-2,5.568-6.18V4.357H144.12v3.3C144.12,10.441,142.888,11.514,141.439,11.514Z" transform="translate(-73.475 -1.208)" fill="#fff"/>
    <path id="パス_4335" data-name="パス 4335" d="M234.551,2.52h-8.281V5.089h8.216c-.212,3.892-3.931,6.333-8.625,6.6v2.55c3.442-.173,6.17-1.04,8.169-2.71l4.369,2.55V10.755l-2.45-1.369a10.133,10.133,0,0,0,1.477-5.151h-2.873V2.52Z" transform="translate(-119.897 -1.335)" fill="#fff"/>
    <path id="パス_4336" data-name="パス 4336" d="M200.815,14.484H199.55v2.21h1.265c5.408,0,8.329-2.29,8.329-6.673V6.56h-2.21V9.824c0,3.231-2.243,4.66-6.123,4.66Z" transform="translate(-105.959 -3.835)" fill="#fff"/>
    <rect id="長方形_1669" data-name="長方形 1669" width="1.35" height="2.21" transform="translate(115.501)" fill="#fff"/>
    <rect id="長方形_1670" data-name="長方形 1670" width="5.911" height="2.422" transform="translate(31.983 4.379)" fill="#fff"/>
    <rect id="長方形_1671" data-name="長方形 1671" width="1.364" height="2.21" transform="translate(117.626)" fill="#fff"/>
    <path id="パス_4337" data-name="パス 4337" d="M204.07,6.6l.132,4.364h2.093L206.167,6.6Z" transform="translate(-108.354 -3.621)" fill="#fff"/>
    <path id="パス_4338" data-name="パス 4338" d="M197.58,6.6l.146,4.364h2.1L199.677,6.6Z" transform="translate(-104.865 -3.621)" fill="#fff"/>
    <rect id="長方形_1672" data-name="長方形 1672" width="5.911" height="2.403" transform="translate(31.983 1.218)" fill="#fff"/>
  </g>
</svg>
