<svg id="ディズニーリゾートライン" xmlns="http://www.w3.org/2000/svg" width="179" height="14" viewBox="0 0 179 14">
  <path id="パス_4361" data-name="パス 4361" d="M68.767,2.52H60.5V5.311h8.2c-.211,4.229-3.925,6.882-8.611,7.174v2.771c3.437-.188,6.16-1.13,8.156-2.945l4.362,2.771V11.469L70.162,9.982a11.738,11.738,0,0,0,1.474-5.6H68.767V2.52Z" transform="translate(-31.769 -1.337)" fill="#fff"/>
  <rect id="長方形_1676" data-name="長方形 1676" width="1.362" height="2.207" transform="translate(102.585)" fill="#fff"/>
  <rect id="長方形_1677" data-name="長方形 1677" width="11.236" height="2.855" transform="translate(60.534 6.197)" fill="#fff"/>
  <rect id="長方形_1678" data-name="長方形 1678" width="1.348" height="2.207" transform="translate(37.866)" fill="#fff"/>
  <rect id="長方形_1679" data-name="長方形 1679" width="1.362" height="2.207" transform="translate(40)" fill="#fff"/>
  <path id="パス_4362" data-name="パス 4362" d="M196.757,8.414l-1.1-6.034h-2.8l.991,6.034Z" transform="translate(-101.974 -1.263)" fill="#fff"/>
  <path id="パス_4363" data-name="パス 4363" d="M165.716,12.321H163.8v2.8h2.268c4.8,0,7.93-2.14,7.93-7.3V2.21h-2.723v5.3c0,3.438-1.883,4.805-5.559,4.805Z" transform="translate(-86.603 -1.172)" fill="#fff"/>
  <rect id="長方形_1680" data-name="長方形 1680" width="12.518" height="2.643" transform="translate(44.582 11.098)" fill="#fff"/>
  <rect id="長方形_1681" data-name="長方形 1681" width="11.546" height="2.658" transform="translate(45.071 1.427)" fill="#fff"/>
  <path id="パス_4364" data-name="パス 4364" d="M360.458,3A26.885,26.885,0,0,0,354.1,2.42V5.11a29.847,29.847,0,0,1,6.358.582Z" transform="translate(-187.209 -1.284)" fill="#fff"/>
  <path id="パス_4365" data-name="パス 4365" d="M0,12.583H6.226v.291c0,1.93-.972,3.066-4.052,3.066H.4V18.6H2.366c5.109,0,7.132-2.545,7.132-5.724v-.291h3V9.94H0v2.643Z" transform="translate(0 -4.598)" fill="#fff"/>
  <rect id="長方形_1682" data-name="長方形 1682" width="1.362" height="2.207" transform="translate(11.64)" fill="#fff"/>
  <path id="パス_4366" data-name="パス 4366" d="M8.672,2.35H0V5.008H12.5V4.2H8.672Z" transform="translate(0 -1.247)" fill="#fff"/>
  <rect id="長方形_1683" data-name="長方形 1683" width="1.348" height="2.207" transform="translate(9.517)" fill="#fff"/>
  <path id="パス_4367" data-name="パス 4367" d="M32.26,10.086v2.287l4.878-1.216V16.49h2.3V10.456a4.976,4.976,0,0,0,3.4-4.216H40.4c-.164,1.376-1.263,2.089-3.4,2.643l-4.733,1.2Z" transform="translate(-17.113 -2.636)" fill="#fff"/>
  <rect id="長方形_1684" data-name="長方形 1684" width="2.742" height="6.339" transform="translate(75.559 1.038)" fill="#fff"/>
  <rect id="長方形_1685" data-name="長方形 1685" width="11.236" height="2.855" transform="translate(106.434 6.197)" fill="#fff"/>
  <path id="パス_4368" data-name="パス 4368" d="M357.3,12.779H353.68V15.59h3.874c6.907,0,8.433-4.733,8.433-8.968V3.21h-2.658V6.587C363.329,10.649,361.446,12.779,357.3,12.779Z" transform="translate(-186.987 -1.703)" fill="#fff"/>
  <path id="パス_4369" data-name="パス 4369" d="M259.373,1.66h-2.8V14.866h2.8V8.647a20.876,20.876,0,0,0,8.17,1.519V7.3a20.758,20.758,0,0,1-8.17-1.643Z" transform="translate(-135.649 -0.881)" fill="#fff"/>
  <rect id="長方形_1686" data-name="長方形 1686" width="12.795" height="2.737" transform="translate(135.023 1.117)" fill="#fff"/>
  <path id="パス_4370" data-name="パス 4370" d="M295.9,13.173c0,1.963-1.427,2.9-5.188,2.9h-3.291v2.643h3.484c5.672,0,8.348-2.24,8.348-6.034V10.22H286.46V12.9H295.9v.277Z" transform="translate(-151.447 -4.747)" fill="#fff"/>
  <path id="パス_4371" data-name="パス 4371" d="M319.87,6.857V9.784l5.9-1.575V15h2.742V7.338a6.214,6.214,0,0,0,4.137-5.368H329.7c-.193,1.778-1.54,2.738-4.118,3.4l-5.7,1.486Z" transform="translate(-169.051 -1.045)" fill="#fff"/>
  <rect id="長方形_1687" data-name="長方形 1687" width="1.348" height="2.207" transform="translate(100.455)" fill="#fff"/>
  <path id="パス_4372" data-name="パス 4372" d="M194.09,13.99v2.658c7.132,0,11.1-2.479,11.546-7.813l.2-2.545h-2.69l-.178,2.094C202.542,12.469,199.2,14,194.095,14Z" transform="translate(-102.614 -2.662)" fill="#fff"/>
</svg>
