<?xml version="1.0" encoding="utf-8"?>
<!-- Generator: Adobe Illustrator 27.5.0, SVG Export Plug-In . SVG Version: 6.00 Build 0)  -->
<svg version="1.1" id="レイヤー_1" xmlns="http://www.w3.org/2000/svg" xmlns:xlink="http://www.w3.org/1999/xlink" x="0px"
	 y="0px" viewBox="0 0 320 320" style="enable-background:new 0 0 320 320;" xml:space="preserve">
<style type="text/css">
	.st0{fill:#4CC764;}
	.st1{fill:#FFFFFF;}
</style>
<g>
	<circle class="st0" cx="160" cy="160" r="160"/>
	<g>
		<g>
			<g>
				<path class="st1" d="M266.7,150.7c0-47.8-47.9-86.7-106.8-86.7C101,64,53.1,102.9,53.1,150.7c0,42.8,38,78.7,89.3,85.5
					c3.5,0.8,8.2,2.3,9.4,5.3c1.1,2.7,0.7,6.9,0.3,9.7c0,0-1.3,7.5-1.5,9.1c-0.5,2.7-2.1,10.6,9.3,5.8c11.4-4.8,61.5-36.2,83.9-62h0
					C259.3,187,266.7,169.8,266.7,150.7z"/>
			</g>
			<g>
				<path class="st0" d="M231.2,178.3c1.1,0,2-0.9,2-2v-7.6c0-1.1-0.9-2-2-2h-20.4v-7.9h20.4c1.1,0,2-0.9,2-2v-7.6c0-1.1-0.9-2-2-2
					h-20.4v-7.9h20.4c1.1,0,2-0.9,2-2v-7.6c0-1.1-0.9-2-2-2h-30h0c-1.1,0-2,0.9-2,2v0v0v46.5v0v0c0,1.1,0.9,2,2,2h0H231.2z"/>
				<path class="st0" d="M120.2,178.3c1.1,0,2-0.9,2-2v-7.6c0-1.1-0.9-2-2-2H99.8v-37c0-1.1-0.9-2-2-2h-7.6c-1.1,0-2,0.9-2,2v46.6v0
					v0c0,1.1,0.9,2,2,2h0H120.2z"/>
				<path class="st0" d="M138.2,127.6h-7.6c-1.1,0-2,0.9-2,2v46.6c0,1.1,0.9,2,2,2h7.6c1.1,0,2-0.9,2-2v-46.6
					C140.3,128.5,139.4,127.6,138.2,127.6z"/>
				<path class="st0" d="M189.8,127.6h-7.6c-1.1,0-2,0.9-2,2v27.7l-21.3-28.8c0-0.1-0.1-0.1-0.2-0.2c0,0,0,0,0,0
					c0,0-0.1-0.1-0.1-0.1c0,0,0,0,0,0c0,0-0.1-0.1-0.1-0.1c0,0,0,0-0.1,0c0,0-0.1-0.1-0.1-0.1c0,0,0,0-0.1,0c0,0-0.1,0-0.1-0.1
					c0,0,0,0-0.1,0c0,0-0.1,0-0.1-0.1c0,0,0,0-0.1,0c0,0-0.1,0-0.1,0c0,0,0,0-0.1,0c0,0-0.1,0-0.1,0c0,0-0.1,0-0.1,0
					c0,0-0.1,0-0.1,0c0,0-0.1,0-0.1,0c0,0,0,0-0.1,0h-7.5c-1.1,0-2,0.9-2,2v46.6c0,1.1,0.9,2,2,2h7.6c1.1,0,2-0.9,2-2v-27.7
					l21.4,28.8c0.1,0.2,0.3,0.4,0.5,0.5c0,0,0,0,0,0c0,0,0.1,0.1,0.1,0.1c0,0,0,0,0.1,0c0,0,0.1,0,0.1,0c0,0,0.1,0,0.1,0
					c0,0,0,0,0.1,0c0,0,0.1,0,0.1,0c0,0,0,0,0,0c0.2,0,0.3,0.1,0.5,0.1h7.5c1.1,0,2-0.9,2-2v-46.6
					C191.8,128.5,190.9,127.6,189.8,127.6z"/>
			</g>
		</g>
	</g>
</g>
</svg>
