<svg id="download" xmlns="http://www.w3.org/2000/svg" width="46" height="46" viewBox="0 0 46 46">
  <circle id="楕円形_13" data-name="楕円形 13" cx="23" cy="23" r="23" fill="#4cc764"/>
  <g id="グループ_123" data-name="グループ 123" transform="translate(7.638 9.171)">
    <g id="グループ_122" data-name="グループ 122">
      <g id="グループ_120" data-name="グループ 120">
        <path id="パス_1602" data-name="パス 1602" d="M83.291,76.255C83.291,69.5,76.521,64,68.2,64S53.1,69.5,53.1,76.255c0,6.05,5.371,11.124,12.622,12.085.495.113,1.159.325,1.329.749a2.993,2.993,0,0,1,.042,1.371s-.184,1.06-.212,1.286c-.071.382-.3,1.5,1.314.82s8.693-5.117,11.859-8.763h0A10.949,10.949,0,0,0,83.291,76.255Z" transform="translate(-53.1 -64)" fill="#fff"/>
      </g>
      <g id="グループ_121" data-name="グループ 121" transform="translate(4.961 8.99)">
        <path id="パス_1603" data-name="パス 1603" d="M203.723,134.852a.284.284,0,0,0,.283-.283V133.5a.284.284,0,0,0-.283-.283H200.84V132.1h2.883a.284.284,0,0,0,.283-.283v-1.074a.284.284,0,0,0-.283-.283H200.84V129.34h2.883a.284.284,0,0,0,.283-.283v-1.074a.284.284,0,0,0-.283-.283h-4.24a.284.284,0,0,0-.283.283h0v6.573h0a.284.284,0,0,0,.283.283h4.24Z" transform="translate(-183.511 -127.686)" fill="#4cc764"/>
        <path id="パス_1604" data-name="パス 1604" d="M92.723,134.852a.284.284,0,0,0,.283-.283V133.5a.284.284,0,0,0-.283-.283H89.84v-5.23a.284.284,0,0,0-.283-.283H88.483a.284.284,0,0,0-.283.283v6.587h0a.284.284,0,0,0,.283.283h4.24Z" transform="translate(-88.2 -127.686)" fill="#4cc764"/>
        <path id="パス_1605" data-name="パス 1605" d="M129.957,127.6h-1.074a.284.284,0,0,0-.283.283v6.587a.284.284,0,0,0,.283.283h1.074a.284.284,0,0,0,.283-.283v-6.587A.267.267,0,0,0,129.957,127.6Z" transform="translate(-122.89 -127.6)" fill="#4cc764"/>
        <path id="パス_1606" data-name="パス 1606" d="M153.565,127.6H152.49a.284.284,0,0,0-.283.283V131.8l-3.011-4.071c0-.014-.014-.014-.028-.028h0l-.014-.014h0l-.014-.014h-.014l-.014-.014H149.1a.014.014,0,0,1-.014-.014h-.014a.014.014,0,0,1-.014-.014h-1.173a.284.284,0,0,0-.283.283V134.5a.284.284,0,0,0,.283.283h1.074a.284.284,0,0,0,.283-.283v-3.915l3.025,4.071a.171.171,0,0,0,.071.071h0l.014.014h.071c.028,0,.042.014.071.014h1.06a.284.284,0,0,0,.283-.283v-6.587A.263.263,0,0,0,153.565,127.6Z" transform="translate(-139.204 -127.6)" fill="#4cc764"/>
      </g>
    </g>
  </g>
</svg>
