<svg id="download-1" xmlns="http://www.w3.org/2000/svg" width="45.549" height="45.549" viewBox="0 0 45.549 45.549">
  <path id="パス_1607" data-name="パス 1607" d="M45.549,22.774a22.774,22.774,0,1,0-26.333,22.5V29.358H13.433V22.774h5.783V17.757c0-5.707,3.4-8.861,8.6-8.861a35.026,35.026,0,0,1,5.1.445v5.6H30.043c-2.829,0-3.71,1.757-3.71,3.559v4.27h6.316l-1.01,6.583H26.333V45.273A22.778,22.778,0,0,0,45.549,22.774Z" fill="#1877f2"/>
  <path id="パス_1608" data-name="パス 1608" d="M320.206,220.461l1.01-6.583H314.9v-4.27c0-1.8.881-3.558,3.71-3.558h2.873v-5.6a35.025,35.025,0,0,0-5.1-.445c-5.2,0-8.6,3.154-8.6,8.861v5.018H302v6.583h5.783v15.915a23.093,23.093,0,0,0,7.117,0V220.461Z" transform="translate(-288.567 -191.104)" fill="#fff"/>
</svg>
